<?xml version="1.0" encoding="utf-8"?>
<!-- Generator: Adobe Illustrator 21.0.2, SVG Export Plug-In . SVG Version: 6.00 Build 0)  -->
<svg version="1.1" id="Ebene_1" xmlns="http://www.w3.org/2000/svg" xmlns:xlink="http://www.w3.org/1999/xlink" x="0px" y="0px"
	 viewBox="0 0 311.8 62.4" style="enable-background:new 0 0 311.8 62.4;" xml:space="preserve">
<style type="text/css">
	.st0{fill:#EBA30F;}
</style>
<g>
	<path class="st0" d="M53.7,8.8C45.4,7.7,38.5,5.7,34,3.2c-4.5,2.5-11.4,4.5-19.7,5.7c-0.7,3.5-1.1,7.2-1.1,11
		c0,17.8,8,31.2,20.8,39.4c12.8-8.1,20.8-21.5,20.8-39.4C54.8,16,54.4,12.3,53.7,8.8 M34,50.7C24.8,43.4,20,32.8,20,19.8
		c0-1.7,0.1-3.4,0.3-5c5.3-1,9.9-2.4,13.7-4c3.8,1.6,8.4,3,13.7,4c0.2,1.7,0.3,3.3,0.3,5C47.9,32.8,43.1,43.4,34,50.7"/>
	<polygon class="st0" points="72.6,15.7 97.7,15.7 97.7,21.7 88.3,21.7 88.3,49.7 81.8,49.7 81.8,21.7 72.6,21.7 	"/>
	<path class="st0" d="M101.1,15.7H116c5.3,0,9.3,2.5,9.3,10.6c0,8.4-3.5,9.4-5.4,10l6.5,13.4h-7.3l-5.6-12.9l-5.7-0.7v13.5h-6.5
		V15.7z M115.4,31c2.2,0,3.3-0.7,3.3-4.8c0-3.9-1.3-4.8-3.3-4.8h-7.7V31H115.4z"/>
	<path class="st0" d="M142,15.4c8,0,13.7,1.5,13.7,17.5c0,15-5.3,17-13.7,17c-8.4,0-13.7-1.5-13.7-17C128.3,17,134.2,15.4,142,15.4
		 M142,43.9c5.5,0,7.2-1.8,7.2-11c0-10.6-2-11.5-7.2-11.5c-5,0-7.2,0.7-7.2,11.5C134.8,42.2,136.2,43.9,142,43.9"/>
	<path class="st0" d="M173,15.4c8,0,13.7,1.5,13.7,17.5c0,15-5.3,17-13.7,17c-8.4,0-13.7-1.5-13.7-17C159.3,17,165.2,15.4,173,15.4
		 M173,43.9c5.5,0,7.2-1.8,7.2-11c0-10.6-2-11.5-7.2-11.5c-5,0-7.2,0.7-7.2,11.5C165.8,42.2,167.2,43.9,173,43.9"/>
	<path class="st0" d="M190.5,15.7h14.6c4.3,0,9.4,1.3,9.4,10.5c0,10.4-5.5,11.1-9.4,11c-1.9-0.1-7.9-0.8-8.1-0.9v13.5h-6.5V15.7z
		 M204.7,31.4c2,0,3.4-1.1,3.4-5.2c0-4-1.8-4.8-3.4-4.8h-7.6v9.9H204.7z"/>
	<path class="st0" d="M218.9,22.7c0-5.9,4.2-7.1,7.4-7.1c0,0,12,0.3,15,0.7v5.4h-13.4c-2.4,0-2.4,1.3-2.4,2.6v5.3l13.8,0.5v5.4
		L225.4,36v5.3c0,2.5,1.5,2.4,2.9,2.4h13V49c-2.7,0.4-14.5,0.8-14.5,0.8c-3,0.1-7.9-0.6-7.9-6.8V22.7z"/>
	<path class="st0" d="M244.9,15.7h14.9c5.3,0,9.3,2.5,9.3,10.6c0,8.4-3.5,9.4-5.4,10l6.5,13.4h-7.4l-5.6-12.9l-5.7-0.7v13.5h-6.5
		V15.7z M259.2,31c2.2,0,3.4-0.7,3.4-4.8c0-3.9-1.3-4.8-3.4-4.8h-7.7V31H259.2z"/>
	<path class="st0" d="M273.1,24.2c0-6.7,4-8.7,9.2-8.8c4.9-0.1,10.5,0.6,13.2,1.3v5.1c-3-0.3-9.7-0.5-11.4-0.5
		c-2.8,0-4.5,0.1-4.5,3.3v1.7c0,2.7,1,3.3,3.6,3.3h5.4c6.7,0,8,5.3,8,9v2.3c0,7.7-4.8,9.2-9.4,9.2c-5.8,0-9.6-0.4-13.2-1.4v-5.1
		c1.9,0.2,7.5,0.5,11.9,0.5c2,0,4.2-0.3,4.2-2.9v-1.8c0-2-0.5-3.2-3.1-3.2h-5.2c-8.2,0-8.8-6-8.8-9V24.2z"/>
</g>
</svg>
